<svg xmlns="http://www.w3.org/2000/svg" viewBox="0 0 512 512"><defs><radialGradient id="b" cx="50%" cy="42%" r="60%"><stop offset="0%" stop-color="#bd00e6" stop-opacity=".85"/><stop offset="30%" stop-color="#7a00a3" stop-opacity=".65"/><stop offset="65%" stop-color="#310047" stop-opacity=".4"/><stop offset="100%" stop-color="#0a0014" stop-opacity="0"/></radialGradient><radialGradient id="c" cx="50%" cy="38%" r="28%"><stop offset="0%" stop-color="#f066ff" stop-opacity=".6"/><stop offset="60%" stop-color="#b500e0" stop-opacity=".2"/><stop offset="100%" stop-opacity="0"/></radialGradient><linearGradient id="e" x1="0%" x2="100%" y1="0%" y2="0%"><stop offset="0%" stop-color="#ff00a0"/><stop offset="30%" stop-color="#f0e"/><stop offset="70%" stop-color="#d000cd"/><stop offset="100%" stop-color="#990095"/></linearGradient><clipPath id="a"><rect width="512" height="512" rx="36" ry="36"/></clipPath><filter id="d" width="140%" height="140%" x="-20%" y="-20%"><feGaussianBlur result="blur" stdDeviation="10"/><feComponentTransfer in="blur" result="boost"><feFuncA slope="1.8" type="linear"/></feComponentTransfer><feMerge><feMergeNode in="boost"/><feMergeNode in="SourceGraphic"/></feMerge></filter></defs><g clip-path="url(#a)"><path fill="#080010" d="M0 0h512v512H0z"/><path fill="url(#b)" d="M0 0h512v512H0z"/><path fill="url(#c)" d="M0 0h512v512H0z"/><g stroke="#d000ff" stroke-linecap="round" opacity=".55"><path stroke-width="3" d="m410 500 85-85"/><path stroke-width="6" d="m428 500 72-72"/><path stroke-width="2" d="m445 500 60-60"/><path fill="#ff00d4" stroke="none" d="m455 485 15-15h12l-15 15z"/><path stroke-dasharray="4 4" stroke-width="2" d="m390 490 50-50"/></g><g fill="#e024ff" stroke="#e024ff" stroke-linejoin="round" stroke-width="14" filter="url(#d)" opacity=".85"><path d="M208 352h96v-72l131-50V110l-58-58H135l-58 58v110h91v-85l20-13h112l20 13v85l-112 40Z"/><rect width="96" height="72" x="208" y="386" rx="2"/></g><path fill="#fff" stroke="#fff" stroke-linecap="round" stroke-linejoin="round" stroke-width="6" d="M208 352h96v-72l131-50V110l-58-58H135l-58 58v110h91v-85l20-13h112l20 13v85l-112 40Z"/><rect width="96" height="72" x="208" y="386" fill="#fff" stroke="#fff" stroke-linecap="round" stroke-linejoin="round" stroke-width="6" rx="2"/><path fill="#030006" d="M0 0h76L0 76z" opacity=".88"/><path stroke="#1d002b" stroke-width="2" d="M0 76 76 0"/><path fill="url(#e)" d="m0 492 130-4h382v24H0Z"/><path stroke="#ff88f3" stroke-width="1.5" d="m0 492 130-4" opacity=".7"/></g></svg>